# xmcd CD database file
#
# Track frame offsets:
#	180
#	17965
#	43882
#	72038
#	86899
#	101353
#	125122
#	148049
#	175917
#	213149
#
# Disc length: 3024 seconds
#
# Revision: 0
# Processed by: cddbd v1.5.2PL0 Copyright (c) Steve Scherf et al.
# Submitted via: CDex 1.70beta2
#
DISCID=900bce0a
DTITLE=Blanke-Bohne, Andreas - Stuck State
DYEAR=1900
DGENRE=New Age
TTITLE0=Dance Of The Salt Ghost
TTITLE1=Süße Scherben
TTITLE2=Gale On The Ridge
TTITLE3=Drizzle
TTITLE4=Down The Slot
TTITLE5=Buchanan Bus Station
TTITLE6=Fed Up With Jazz
TTITLE7=Zwerge im Nebel
TTITLE8=Forgotten Tears
TTITLE9=Déjà Entendu
EXTD=
EXTT0=
EXTT1=
EXTT2=
EXTT3=
EXTT4=
EXTT5=
EXTT6=
EXTT7=
EXTT8=
EXTT9=
PLAYORDER=
